<svg t="1644476546856" class="icon" viewBox="0 0 1024 1024" version="1.1" xmlns="http://www.w3.org/2000/svg" p-id="2392" width="200" height="200"><path d="M976.304 1024H47.696A47.696 47.696 0 0 1 0 976.304V47.696A47.696 47.696 0 0 1 47.696 0h928.6A47.696 47.696 0 0 1 1024 47.696v928.6a47.696 47.696 0 0 1-47.696 47.704z" fill="#D1D3D4" p-id="2393"></path><path d="M976.304 0H512v1024h464.304a47.696 47.696 0 0 0 47.696-47.696V47.696A47.696 47.696 0 0 0 976.304 0z" fill="#BCBEC0" p-id="2394"></path><path d="M779.832 827.536a47.712 47.712 0 0 1-41.312-23.856L612.856 586l-57.04 98.816a47.712 47.712 0 0 1-82.624 0l-27.344-47.352-95.968 166.216a47.696 47.696 0 0 1-41.312 23.856h-64.392a47.696 47.696 0 0 1-47.696-47.704V244.176a47.696 47.696 0 0 1 47.696-47.696h535.656a47.696 47.696 0 0 1 47.704 47.696V779.84a47.704 47.704 0 0 1-47.704 47.696z" fill="#48AEE2" p-id="2395"></path><path d="M779.832 196.48H512.008v512.104a47.712 47.712 0 0 0 43.808-23.768l57.04-98.824 125.672 217.68a47.72 47.72 0 0 0 53.648 22.232 47.696 47.696 0 0 0 35.36-46.08V244.176a47.704 47.704 0 0 0-47.704-47.696z" fill="#39A3DB" p-id="2396"></path><path d="M821.144 755.984L654.168 466.736c-18.352-31.784-64.304-31.728-82.624 0l-59.536 103.144v182.136l29.84 51.672a47.704 47.704 0 0 0 41.304 23.84H779.84c36.696 0 59.616-39.816 41.304-71.544z" fill="#1DA49C" p-id="2397"></path><path d="M336.04 503.696c-77.88 0-139.576-55.272-139.576-90.544v-154.24c0-28.784 34.216-62.448 62.456-62.448h154.232c34.152 0 90.544 60.52 90.544 139.576 0 92.44-75.208 167.656-167.656 167.656z" fill="#F2C500" p-id="2398"></path><path d="M583.152 827.536H308.568c-36.704 0-59.624-39.824-41.304-71.552l137.28-237.76c18.344-31.792 64.288-31.736 82.616-0.008l137.304 237.76c18.352 31.784-4.672 71.56-41.312 71.56z" fill="#65C6BB" p-id="2399"></path><path d="M631.44 411.68h-59.208a47.696 47.696 0 0 1 0-95.4h59.2a47.696 47.696 0 0 1 0 95.4z" fill="#D1D3D4" p-id="2400"></path><path d="M624.456 755.976l-112.448-194.72v266.272h71.144c36.704 0 59.632-39.824 41.304-71.552z" fill="#57BDB7" p-id="2401"></path></svg>