<?xml version="1.0" standalone="no"?>
<!DOCTYPE svg PUBLIC "-//W3C//DTD SVG 20010904//EN"
 "http://www.w3.org/TR/2001/REC-SVG-20010904/DTD/svg10.dtd">
<svg version="1.0" xmlns="http://www.w3.org/2000/svg"
 width="564.000000pt" height="752.000000pt" viewBox="0 0 564.000000 752.000000"
 preserveAspectRatio="xMidYMid meet">
<metadata>
Created by potrace 1.15, written by Peter Selinger 2001-2017
</metadata>
<g transform="translate(0.000000,752.000000) scale(0.100000,-0.100000)"
fill="#000000" stroke="none">
<path d="M0 6134 l0 -1385 47 38 c27 21 53 43 59 49 6 5 35 30 65 55 59 50
161 139 169 148 3 4 43 38 90 76 47 38 94 77 105 86 172 147 236 199 245 199
5 0 10 4 10 9 0 5 13 12 30 16 17 4 32 15 36 27 3 11 21 37 38 57 18 20 42 50
53 66 27 37 242 251 303 300 25 19 59 48 75 63 31 29 131 114 174 148 27 21
176 151 217 189 15 14 32 25 39 25 6 0 41 28 77 63 170 161 315 277 347 277 6
0 15 9 21 20 6 11 17 20 25 20 7 0 15 4 17 9 3 10 150 84 188 96 61 18 219
107 228 128 2 4 10 7 18 7 8 0 14 3 14 8 0 4 24 20 53 35 30 16 67 47 87 73
65 85 132 163 144 167 10 4 11 -6 4 -45 -12 -68 -6 -82 34 -74 48 9 49 11 161
201 7 11 37 58 68 105 30 47 58 93 62 102 3 9 16 18 29 21 13 2 -732 5 -1654
6 l-1678 1 0 -1386z"/>
<path d="M3855 7510 c3 -5 -5 -12 -19 -16 -35 -8 -54 -33 -36 -44 8 -5 21 -5
31 1 10 5 33 9 53 9 49 0 89 17 83 35 -4 10 3 15 26 18 18 2 -8 5 -56 5 -55 1
-86 -2 -82 -8z"/>
<path d="M5040 7510 c128 -4 155 -8 156 -20 0 -16 -29 -50 -43 -50 -5 0 -14
-9 -21 -20 -7 -11 -20 -20 -31 -20 -10 0 -29 -10 -43 -23 -24 -22 -24 -24 -9
-56 13 -27 13 -34 2 -41 -10 -6 -8 -9 8 -15 18 -5 20 -9 10 -22 -10 -12 -10
-16 2 -24 18 -11 21 -11 39 1 13 9 13 11 1 19 -12 8 -12 12 2 25 8 9 22 13 30
10 8 -3 17 2 20 10 4 11 19 16 42 16 20 0 45 5 56 11 15 8 31 6 65 -7 24 -9
44 -21 44 -25 0 -13 76 -49 104 -49 30 0 42 16 26 35 -10 13 -8 15 13 15 14 0
27 7 31 15 7 19 75 13 87 -7 5 -7 9 41 9 110 l0 122 -377 -2 c-259 -2 -329 -4
-223 -8z"/>
<path d="M5003 7493 c9 -2 23 -2 30 0 6 3 -1 5 -18 5 -16 0 -22 -2 -12 -5z"/>
<path d="M5003 7463 c4 -3 10 -3 14 0 3 4 0 7 -7 7 -7 0 -10 -3 -7 -7z"/>
<path d="M3610 7210 c0 -5 7 -10 15 -10 8 0 15 5 15 10 0 6 -7 10 -15 10 -8 0
-15 -4 -15 -10z"/>
<path d="M3508 5479 c-19 -11 -24 -29 -8 -29 5 0 14 9 20 20 12 23 12 23 -12
9z"/>
<path d="M4970 5424 c-31 -28 -40 -44 -40 -69 0 -36 -21 -60 -45 -52 -10 4
-24 -11 -47 -48 -36 -61 -73 -77 -115 -50 -21 14 -25 14 -53 -7 -35 -25 -35
-25 -15 -71 20 -47 10 -124 -17 -138 -11 -6 -30 -8 -43 -5 -29 7 -79 -10 -70
-24 4 -6 1 -17 -5 -25 -7 -8 -10 -22 -6 -30 10 -28 -11 -65 -39 -65 -14 0 -30
-9 -37 -20 -7 -11 -23 -20 -36 -20 -12 0 -35 -8 -49 -17 -26 -17 -66 -34 -126
-53 l-29 -9 5 62 c9 123 43 215 98 271 37 36 39 41 39 103 0 50 -4 68 -20 85
-11 12 -20 34 -20 50 0 15 -4 28 -10 28 -5 0 -10 -4 -10 -10 0 -5 -5 -10 -11
-10 -8 0 -8 4 -2 13 6 6 13 26 17 42 l7 30 -21 -25 c-29 -34 -80 -147 -80
-175 0 -13 5 -27 10 -30 18 -11 10 -50 -14 -67 -21 -15 -26 -16 -36 -3 -17 20
-40 19 -40 -2 0 -24 -56 -83 -78 -83 -10 0 -34 9 -55 20 l-38 21 5 -43 c3 -24
9 -58 12 -76 7 -34 -13 -61 -45 -62 -8 0 -19 -8 -26 -17 -11 -14 -16 -15 -28
-5 -8 7 -26 10 -39 7 -17 -4 -33 3 -58 25 -42 36 -58 37 -95 8 -15 -12 -39
-22 -54 -23 -14 -1 -33 -3 -41 -6 -9 -2 -15 2 -15 11 0 8 -7 20 -15 26 -12 10
-12 17 4 52 10 23 27 50 38 62 17 18 18 23 6 37 -7 9 -8 14 -2 10 7 -4 14 -1
17 6 67 158 77 191 65 229 -11 38 -28 52 -28 23 0 -8 -4 -15 -10 -15 -5 0 -7
7 -4 15 4 9 0 15 -8 15 -8 0 -23 9 -33 20 -18 20 -18 20 -37 -11 -10 -16 -16
-34 -13 -40 4 -5 0 -9 -7 -9 -7 0 -20 -5 -28 -10 -13 -8 -12 -11 5 -25 19 -16
18 -16 -17 -11 -29 4 -36 2 -31 -10 3 -8 10 -14 17 -14 7 0 6 -4 -2 -9 -10 -6
-7 -10 12 -15 14 -3 26 -11 26 -16 0 -6 -11 -8 -25 -4 -19 5 -25 2 -25 -9 0
-9 -8 -22 -19 -29 -10 -7 -21 -23 -25 -35 -9 -28 -44 -38 -104 -28 -99 15
-102 14 -143 -29 -21 -22 -39 -44 -39 -48 0 -4 -8 -8 -18 -8 -10 0 -33 -14
-52 -31 -22 -21 -44 -31 -67 -32 -18 -1 -33 -4 -33 -9 0 -4 -7 -5 -15 -2 -20
8 -19 31 3 43 15 9 14 11 -8 11 l-25 1 23 11 c12 6 22 17 22 24 0 7 5 14 10
16 6 2 12 17 14 34 5 41 47 106 85 134 17 12 31 26 31 31 0 6 14 31 32 57 34
49 42 79 26 99 -6 7 -8 20 -4 28 4 13 2 14 -15 5 -11 -6 -17 -16 -13 -23 4 -7
4 -9 -1 -5 -25 23 -195 -136 -286 -267 -75 -107 -121 -147 -194 -168 -98 -28
-187 -59 -240 -82 -27 -13 -75 -33 -105 -46 -141 -60 -364 -253 -441 -384 -19
-32 -44 -74 -57 -94 -12 -20 -34 -58 -48 -86 -15 -27 -38 -67 -51 -89 -15 -24
-21 -42 -15 -48 12 -12 45 38 36 54 -5 7 -2 9 9 5 17 -6 27 11 27 49 0 14 11
40 25 58 14 18 25 38 25 44 0 15 13 15 27 1 6 -6 21 -9 34 -7 18 2 23 9 22 25
-2 15 5 23 25 28 57 14 96 89 69 133 -5 7 -3 12 3 12 7 0 10 6 7 14 -4 9 0 12
13 9 12 -3 22 3 30 18 11 19 10 21 -3 16 -11 -4 -14 -2 -11 8 5 12 10 11 32
-3 18 -12 24 -13 18 -3 -6 9 -5 12 3 10 7 -3 12 -8 11 -13 -1 -5 4 -12 11 -16
14 -9 44 17 44 39 0 8 20 26 45 39 65 36 90 72 50 72 -18 0 -19 2 -8 20 7 11
22 20 33 20 17 0 17 2 5 10 -8 5 -10 10 -4 10 6 0 28 11 48 25 20 14 44 22 53
19 14 -5 15 -4 4 4 -10 7 -10 11 -1 17 7 4 15 2 19 -4 5 -8 14 -6 29 7 11 10
39 27 62 37 38 17 41 17 60 0 15 -13 30 -16 60 -12 l41 5 -8 -36 c-4 -21 -6
-46 -5 -57 1 -11 1 -40 0 -65 -2 -75 -1 -113 6 -162 6 -40 4 -51 -13 -69 -18
-20 -21 -20 -27 -6 -3 10 -14 17 -24 17 -23 0 -90 -28 -90 -38 0 -4 -10 -12
-22 -17 -13 -6 -32 -29 -43 -52 -12 -26 -26 -43 -36 -43 -28 0 -49 -11 -49
-26 0 -8 -5 -14 -10 -14 -7 0 -7 -6 0 -19 14 -27 13 -44 -2 -34 -7 4 -5 -5 5
-20 19 -29 22 -57 7 -57 -5 0 -10 -18 -10 -40 0 -22 -2 -40 -6 -40 -3 0 -19
13 -37 30 -52 49 -57 41 -30 -52 16 -54 19 -58 48 -58 43 0 60 15 61 52 0 30
3 33 33 36 26 3 31 7 26 22 -8 25 13 35 34 16 10 -9 25 -16 34 -16 20 0 41
-36 33 -56 -4 -11 0 -13 19 -8 15 4 25 2 25 -5 0 -6 7 -11 15 -11 8 0 15 -5
15 -11 0 -6 7 -3 16 5 19 20 34 20 34 1 0 -8 11 -22 26 -31 18 -12 22 -20 14
-28 -7 -7 -18 -2 -37 18 -16 18 -28 25 -31 18 -7 -21 59 -74 85 -69 12 2 24
-1 26 -7 2 -6 7 6 11 27 7 37 20 48 29 24 8 -20 84 -39 127 -32 28 5 42 2 54
-10 9 -9 16 -12 16 -6 0 15 27 14 33 -1 4 -10 8 -9 16 2 10 13 12 13 20 0 12
-17 4 -33 -12 -24 -7 3 -3 -2 7 -10 25 -20 43 -21 27 -2 -8 10 -9 16 -1 21 5
3 12 -1 15 -9 3 -9 7 -23 10 -32 4 -12 0 -15 -15 -11 -17 4 -20 1 -18 -34 1
-34 4 -39 21 -33 16 5 19 3 15 -14 -4 -15 -2 -19 8 -15 10 4 12 0 8 -11 -4
-10 0 -18 11 -22 9 -4 12 -10 7 -13 -6 -3 -12 -17 -13 -31 -3 -18 0 -25 12
-24 12 1 15 -4 11 -19 -3 -12 -1 -18 5 -14 6 4 16 0 23 -8 6 -7 18 -11 26 -8
8 3 14 0 14 -6 0 -6 -7 -11 -15 -11 -8 0 -15 -4 -15 -9 0 -12 29 -23 41 -15 5
3 9 0 9 -5 0 -6 9 -11 20 -11 11 0 20 -7 20 -15 0 -8 6 -15 13 -15 7 0 23 -11
35 -25 27 -30 30 -31 88 -4 32 15 42 25 35 32 -16 16 -13 37 4 37 8 0 15 -5
15 -11 0 -8 11 -9 33 -4 17 4 40 7 49 7 26 -1 31 16 8 28 -11 6 -20 16 -20 22
0 6 3 9 6 5 4 -3 19 0 35 9 28 14 29 15 13 39 -16 24 -16 25 9 25 16 0 28 7
32 19 3 12 29 27 67 42 34 13 63 30 65 39 6 23 70 45 87 30 11 -8 14 -7 12 6
-2 25 52 27 91 4 27 -16 33 -17 33 -5 0 8 9 15 20 15 11 0 20 -4 20 -10 0 -5
9 -19 20 -30 11 -11 16 -20 11 -20 -6 0 -13 5 -16 10 -3 6 -10 10 -14 10 -12
0 -8 -40 5 -48 14 -9 12 -64 -3 -69 -8 -3 -8 -14 -1 -40 6 -22 6 -38 0 -42 -5
-3 -12 -17 -15 -30 -6 -25 19 -57 61 -80 22 -12 21 -59 -1 -76 -9 -7 -17 -23
-17 -36 0 -13 4 -19 8 -13 4 6 17 7 32 3 18 -5 20 -7 6 -8 -19 -1 -19 -21 -1
-63 5 -13 3 -18 -9 -18 -9 0 -15 -3 -15 -7 3 -21 -2 -33 -16 -33 -8 0 -15 5
-15 11 0 6 -13 1 -30 -11 -16 -12 -30 -17 -30 -12 0 6 -11 9 -25 8 -29 -1 -31
-8 -10 -29 24 -25 5 -27 -41 -4 -44 22 -56 37 -29 37 17 0 20 16 5 25 -5 3
-20 -3 -32 -14 -26 -25 -27 -25 -52 -6 -10 8 -16 20 -13 28 4 10 0 13 -11 10
-9 -2 -31 9 -48 25 -27 25 -34 27 -50 15 -10 -7 -26 -13 -37 -13 -15 0 -18 5
-14 26 3 16 0 28 -10 31 -8 3 -11 13 -8 24 4 12 1 21 -9 25 -9 3 -16 10 -16
16 0 5 6 6 13 2 6 -4 -3 9 -22 29 -21 22 -39 33 -49 30 -10 -4 -13 -2 -8 5 4
7 3 12 -3 12 -5 0 -18 3 -28 7 -16 6 -16 4 2 -17 l20 -23 -24 13 c-21 10 -23
10 -18 -3 3 -9 -4 -19 -19 -27 -13 -8 -24 -17 -24 -22 0 -5 -10 -6 -22 -2 -21
6 -21 6 -5 -10 24 -24 21 -36 -8 -36 -18 0 -29 -9 -41 -32 -16 -30 -18 -31
-25 -13 -4 11 -8 14 -8 6 -1 -8 7 -24 17 -35 11 -14 12 -17 2 -9 -9 7 -21 8
-29 4 -9 -6 -10 -11 -2 -15 6 -4 11 -19 11 -33 0 -20 -3 -24 -17 -18 -45 19
-64 17 -89 -8 -24 -24 -24 -26 -7 -35 10 -5 27 -6 38 -1 17 6 17 8 3 8 -10 1
-18 8 -18 16 0 12 4 13 19 5 11 -5 21 -15 23 -22 3 -7 13 -13 24 -14 69 -3 72
-4 76 -29 6 -29 -8 -43 -25 -26 -8 8 -7 11 2 11 11 0 11 3 1 15 -7 8 -16 13
-20 10 -5 -3 -20 -1 -34 5 -16 6 -35 6 -48 0 -13 -5 -17 -9 -10 -9 10 -1 10
-6 1 -22 -15 -29 4 -40 59 -34 26 3 42 1 42 -6 0 -7 -10 -9 -24 -5 -12 3 -26
2 -30 -2 -4 -4 -15 -7 -24 -7 -26 0 -82 -26 -82 -38 0 -5 8 -16 18 -23 16 -13
16 -13 0 -14 -10 0 -18 -5 -18 -11 0 -5 -4 -8 -9 -5 -4 3 -13 -6 -20 -20 -6
-14 -7 -23 -2 -19 6 3 15 -4 21 -15 6 -11 17 -20 25 -20 8 0 15 -4 15 -10 0
-5 -9 -10 -20 -10 -11 0 -20 -4 -20 -10 0 -13 -57 -13 -65 -1 -3 5 -19 13 -36
16 -26 6 -30 11 -26 31 5 27 -25 56 -49 47 -9 -3 -14 1 -14 12 0 9 -5 13 -11
10 -5 -4 -19 4 -31 17 -14 15 -22 19 -25 10 -3 -6 -9 -10 -14 -6 -5 3 -9 -2
-9 -10 0 -9 -6 -15 -12 -13 -7 1 -14 -10 -16 -24 -3 -22 2 -29 25 -37 l28 -10
-30 -2 -30 -1 25 -14 c19 -11 21 -14 8 -15 -17 0 -27 -20 -10 -20 4 0 6 -16 4
-36 -3 -27 0 -39 12 -46 9 -5 16 -21 16 -36 0 -22 2 -24 11 -12 8 12 9 10 7
-10 -2 -19 -8 -24 -23 -22 -16 3 -18 1 -7 -9 9 -10 15 -10 23 -2 6 6 18 9 27
5 11 -4 14 -1 9 11 -3 9 -2 17 3 17 6 0 10 -5 10 -11 0 -21 31 -40 68 -42 29
-1 41 -7 49 -23 10 -21 8 -23 -41 -29 -28 -4 -59 -14 -69 -23 -9 -8 -20 -12
-24 -8 -4 4 -2 11 6 15 8 6 2 10 -20 15 -18 3 -34 4 -37 1 -3 -3 0 -5 6 -5 7
0 12 -9 12 -19 0 -14 -5 -18 -20 -14 -11 3 -20 9 -20 13 0 4 -13 10 -30 13
-16 4 -30 11 -30 17 0 7 7 7 21 -1 20 -10 21 -9 16 12 -3 13 -1 29 5 37 10 11
8 16 -5 24 -11 5 -16 16 -13 26 6 18 -39 46 -56 36 -5 -3 -6 6 -2 20 8 34 -4
33 -34 -1 -19 -23 -25 -25 -32 -13 -7 11 -10 8 -11 -15 -2 -56 -4 -60 -21 -59
-10 1 -18 -2 -18 -7 0 -5 7 -9 15 -9 8 0 15 -4 15 -8 0 -5 -10 -8 -22 -8 -18
1 -23 -4 -22 -21 0 -13 -4 -23 -9 -23 -5 0 -4 -7 4 -16 11 -13 9 -14 -16 -8
-22 5 -26 4 -20 -6 6 -10 4 -12 -9 -7 -13 5 -17 3 -13 -7 4 -10 1 -13 -9 -9
-8 3 -23 -2 -33 -12 -16 -13 -39 -16 -120 -16 -98 1 -107 -2 -102 -31 0 -5
-14 -8 -32 -8 -33 0 -90 -17 -117 -35 -8 -6 -63 -11 -122 -12 -104 -2 -107 -1
-96 17 10 15 10 22 0 32 -7 7 -12 8 -12 2 0 -15 -93 9 -98 24 -2 8 11 12 37
12 27 0 41 4 41 13 0 13 40 51 91 88 30 21 39 48 17 50 -7 0 7 6 32 13 25 6
47 9 50 5 3 -4 21 -9 40 -13 19 -3 29 -3 22 0 -6 3 -15 23 -18 45 -4 21 -11
39 -17 39 -6 0 -8 20 -5 50 4 42 2 50 -12 50 -9 0 -25 6 -35 14 -18 13 -18 15
-2 40 10 14 26 26 35 26 34 0 60 41 58 90 -1 25 6 66 15 91 10 25 20 67 24 95
14 116 13 112 44 110 22 -2 28 2 24 14 -2 8 3 2 12 -14 10 -17 20 -25 26 -19
15 15 16 123 1 132 -7 4 -15 21 -18 37 -3 16 -10 31 -15 32 -6 3 -6 8 -1 15
15 19 20 67 8 75 -6 4 -11 14 -11 22 0 10 -12 16 -32 18 -25 3 -35 -2 -48 -22
-10 -14 -21 -23 -26 -21 -11 7 -50 -79 -46 -102 1 -10 6 -23 10 -30 4 -6 3
-14 -2 -17 -5 -4 -12 0 -15 6 -4 7 -5 4 -3 -7 4 -19 -5 -135 -18 -238 -5 -40
-37 -111 -61 -135 -8 -7 -14 -18 -14 -23 0 -5 -3 -8 -7 -8 -21 3 -32 -3 -38
-21 -3 -11 -15 -20 -26 -20 -10 0 -19 -5 -19 -10 0 -6 -11 -15 -25 -20 -31
-12 -35 -45 -4 -37 44 12 30 -57 -21 -101 -36 -32 -40 -73 -9 -94 18 -12 20
-17 10 -35 -10 -20 -8 -22 16 -25 48 -5 39 -33 -17 -56 -27 -11 -50 -26 -50
-31 0 -6 -13 -11 -29 -11 -17 0 -42 -11 -59 -25 -29 -25 -52 -32 -52 -17 0 12
-78 6 -94 -7 -21 -17 -30 -9 -49 41 -9 24 -27 49 -39 57 -20 12 -24 11 -37 -9
-8 -12 -16 -40 -16 -61 -1 -31 3 -39 19 -42 20 -3 20 -4 2 -12 -13 -6 -21 -5
-24 3 -7 22 -31 13 -47 -17 -11 -23 -12 -31 -2 -34 8 -3 5 -8 -7 -13 -13 -5
-21 -3 -24 4 -2 7 -12 12 -21 12 -23 0 -65 45 -56 60 3 6 2 9 -3 8 -12 -4 -65
59 -58 70 3 5 -1 18 -9 28 -14 18 -15 18 -21 -3 -9 -32 -21 -29 -29 7 -8 37
-25 49 -25 18 -1 -13 -14 -48 -30 -78 -17 -30 -30 -60 -30 -66 0 -6 -11 -21
-24 -33 -18 -17 -25 -19 -29 -9 -4 10 -9 9 -20 -4 -8 -10 -22 -18 -31 -18 -14
0 -16 10 -15 54 1 29 -1 58 -5 65 -16 26 -70 3 -59 -25 4 -10 -3 -14 -21 -14
-30 0 -30 0 -12 -45 10 -24 22 -35 35 -35 19 0 19 -3 9 -27 -6 -16 -20 -37
-29 -47 -18 -19 -18 -19 -47 12 -17 18 -35 32 -40 32 -6 0 -14 4 -17 10 -3 5
0 7 8 4 20 -7 29 20 33 96 4 88 7 100 31 119 11 9 23 23 26 31 4 12 6 11 6 -2
1 -21 2 -21 38 -6 34 15 72 57 73 81 0 9 6 17 13 17 8 0 8 3 -2 9 -13 8 -13
14 -1 38 7 15 14 31 14 34 1 3 9 13 19 23 23 24 22 33 -8 40 -22 6 -24 9 -15
26 9 16 8 20 -5 20 -9 0 -15 -9 -15 -21 0 -17 -3 -19 -13 -10 -8 6 -17 8 -21
4 -4 -4 -4 0 0 10 12 31 -4 18 -52 -45 -42 -56 -45 -63 -30 -74 10 -7 13 -15
7 -18 -5 -4 -14 2 -20 11 -5 10 -13 14 -17 10 -4 -4 -2 -13 4 -19 15 -15 16
-38 2 -38 -5 0 -10 7 -10 15 0 8 -4 15 -10 15 -5 0 -10 -4 -10 -9 0 -6 -10
-21 -22 -35 -23 -24 -42 -60 -89 -162 -23 -49 -79 -99 -79 -71 -1 14 -24 -23
-25 -38 0 -17 -57 -95 -65 -90 -5 3 -6 -4 -3 -14 4 -15 -1 -20 -24 -23 -23 -2
-28 -7 -26 -28 1 -14 -1 -19 -4 -11 -6 15 -14 8 -138 -120 -38 -40 -92 -93
-119 -118 -27 -25 -85 -81 -129 -124 -44 -42 -84 -77 -89 -77 -4 0 -8 -430 -8
-955 l0 -955 1660 0 c913 0 1660 4 1660 8 0 5 -5 13 -12 20 -9 9 -7 12 13 12
13 0 19 4 13 8 -6 4 -13 15 -17 25 -6 15 -4 16 13 7 20 -11 29 3 10 15 -18 11
-11 27 10 22 11 -3 20 -1 20 4 0 5 -4 9 -10 9 -5 0 -10 7 -10 15 0 17 16 20
25 5 3 -5 11 -10 17 -10 6 0 4 8 -5 18 -23 25 -21 35 6 27 21 -7 21 -6 5 10
-13 14 -14 22 -6 41 6 13 17 24 23 24 7 0 12 8 11 18 0 9 4 16 10 15 7 -1 10
6 7 17 -4 16 -2 19 13 14 16 -6 17 -5 7 7 -19 19 -16 42 3 35 11 -4 15 -2 11
8 -8 20 3 28 20 15 9 -8 13 -8 13 -1 0 6 -7 15 -16 20 -10 5 -14 15 -10 21 6
9 12 9 23 -1 14 -11 15 -10 8 11 -6 21 -5 22 17 17 19 -6 20 -5 6 4 -10 6 -18
20 -18 32 0 17 2 19 16 7 13 -11 14 -9 9 17 -6 26 -5 27 8 12 15 -19 29 -14
20 8 -3 8 1 14 11 14 14 0 15 4 6 20 -10 18 -9 19 17 9 l28 -10 -24 25 -24 25
33 -9 33 -10 -21 21 c-12 11 -22 25 -22 32 0 8 4 7 10 -3 5 -8 12 -11 16 -7 4
4 2 13 -4 19 -7 7 -12 18 -12 25 0 10 7 9 28 -4 l27 -17 -19 22 c-19 22 -19
22 4 22 22 0 22 1 7 18 -18 20 -23 47 -7 37 6 -3 10 -1 10 5 0 6 -10 15 -22
20 -13 5 -18 9 -11 9 15 1 37 67 27 83 -5 8 -1 7 11 -2 10 -8 16 -10 12 -4 -4
7 1 29 10 50 9 22 18 49 20 61 2 13 15 34 29 48 14 14 23 29 19 34 -3 5 0 11
7 13 6 2 11 18 11 36 0 18 4 32 9 32 4 0 8 7 8 16 0 8 5 12 10 9 6 -3 10 0 10
9 0 8 4 16 8 18 14 6 62 96 59 110 -2 7 -2 10 0 5 8 -13 22 3 16 18 -3 9 1 15
9 15 8 0 27 22 43 50 17 27 34 50 38 50 5 0 5 5 2 10 -4 6 5 20 20 31 19 15
23 24 15 33 -13 17 0 29 17 15 10 -9 13 -8 13 5 0 9 4 16 9 16 5 0 14 13 20
30 5 16 15 30 20 30 6 0 10 3 9 8 -3 15 15 42 29 42 8 0 11 5 8 10 -3 6 -1 10
5 10 7 0 10 7 6 15 -4 10 1 15 16 15 17 0 18 2 8 15 -10 12 -10 15 4 15 9 0
16 5 16 10 0 6 7 10 15 10 8 0 15 7 15 15 0 8 5 15 10 15 6 0 10 7 10 15 0 8
5 15 10 15 6 0 10 6 10 13 0 7 9 19 20 27 11 8 20 20 20 27 0 7 5 13 10 13 6
0 10 7 10 15 0 8 5 15 12 15 6 0 9 3 5 6 -3 3 4 23 16 43 12 20 29 48 36 63 8
16 18 28 23 28 5 0 7 4 4 8 -3 5 3 18 14 29 10 11 24 39 31 62 14 46 13 45 40
31 25 -14 24 -39 -2 -48 -18 -7 -19 -10 -6 -21 10 -8 17 -9 22 -1 3 5 4 10 1
10 -3 0 4 11 15 24 30 34 89 141 78 141 -2 0 6 16 17 35 12 19 25 45 28 57 10
32 117 207 132 216 8 4 14 13 14 20 0 7 16 37 36 67 19 29 58 95 86 144 77
140 117 200 136 207 10 4 31 21 45 39 15 17 31 29 36 26 11 -7 55 47 102 124
18 30 49 78 69 105 20 28 48 70 61 95 13 25 47 78 74 119 64 95 84 133 78 147
-2 7 0 21 5 31 7 12 7 37 0 72 -8 46 -7 56 9 75 10 11 33 42 51 68 l32 46 0
236 c0 203 -2 236 -15 236 -9 0 -15 -9 -15 -23 0 -30 -18 -47 -49 -47 -31 0
-42 7 -58 37 -19 33 -17 36 33 89 49 52 67 85 58 108 -4 10 2 12 20 9 l26 -5
0 149 0 150 -27 12 c-21 10 -24 14 -13 21 18 11 12 18 -22 22 -39 6 -41 11
-24 62 9 26 16 63 16 84 -1 36 -1 36 -14 13 l-13 -23 -6 23 c-10 37 -9 41 13
34 15 -5 20 -2 20 12 0 15 -2 16 -10 3 -7 -11 -10 -5 -10 24 0 25 -6 43 -17
52 -27 20 -43 17 -43 -9 0 -13 -9 -32 -20 -42 -11 -10 -22 -26 -25 -35 -8 -25
-39 -30 -103 -19 l-56 11 -28 -34 c-15 -18 -30 -46 -34 -63 -4 -16 -22 -48
-40 -69 -19 -22 -34 -45 -34 -52 0 -6 -7 -17 -15 -24 -8 -7 -15 -27 -15 -45 0
-47 -9 -65 -37 -76 -16 -6 -23 -15 -20 -23 4 -9 -20 -41 -61 -83 -36 -37 -67
-72 -68 -78 -1 -5 -2 -15 -3 -21 -2 -18 -92 -79 -112 -76 -10 2 -19 -1 -19 -6
0 -5 -9 -12 -20 -15 -13 -3 -20 -14 -20 -30 0 -22 -42 -86 -62 -95 -5 -2 -8
-10 -8 -18 0 -21 -30 -64 -45 -64 -7 0 -58 -45 -113 -100 -55 -55 -105 -100
-112 -100 -15 0 -150 -100 -150 -111 0 -5 -6 -9 -14 -9 -8 0 -17 -11 -20 -25
-4 -14 -12 -25 -18 -25 -6 0 -19 -7 -29 -16 -28 -25 -93 -7 -94 26 -3 58 -6
71 -15 65 -20 -13 -9 11 21 43 16 17 37 32 45 32 7 0 14 6 14 13 0 16 128 77
162 77 17 0 31 7 38 20 6 11 18 20 27 20 9 0 14 3 10 6 -3 3 8 19 24 35 17 16
28 33 25 38 -3 4 12 24 34 44 22 19 40 43 40 51 0 9 7 16 15 16 8 0 15 8 15
18 0 10 11 25 25 32 14 7 25 20 25 29 1 21 29 53 65 71 24 12 31 24 35 56 5
37 54 114 73 114 4 0 7 6 7 13 0 7 9 23 20 35 11 12 20 26 20 32 0 5 3 10 8
10 8 0 42 57 42 71 0 6 15 25 33 42 37 36 59 80 51 101 -3 8 -1 24 5 35 6 11
16 55 21 97 6 43 17 88 26 102 12 18 14 36 10 64 -4 25 -2 46 5 54 9 11 8 14
-5 14 -19 0 -21 21 -4 38 28 28 -5 9 -42 -24z m-1350 -188 c0 -15 -21 -26 -48
-26 -14 1 -12 5 7 20 27 23 41 25 41 6z m-70 -72 c0 -8 -4 -14 -10 -14 -5 0
-10 2 -10 4 0 2 -3 12 -6 20 -5 12 -2 15 10 10 9 -3 16 -12 16 -20z m-880
-249 c-7 -8 -22 -15 -34 -15 -17 1 -16 3 9 15 39 18 40 18 25 0z m2801 -81
c-5 -16 -10 -25 -10 -20 -1 5 -8 3 -17 -5 -10 -8 -8 0 6 25 26 42 33 43 21 0z
m-61 -74 c0 -5 -5 -10 -11 -10 -5 0 -7 5 -4 10 3 6 8 10 11 10 2 0 4 -4 4 -10z
m-1962 -54 c-3 -15 0 -27 8 -30 8 -3 11 -12 8 -21 -9 -22 -84 -21 -84 1 0 23
33 61 49 56 8 -3 11 0 7 7 -4 6 -2 11 5 11 7 0 9 -10 7 -24z m2029 -273 c-4
-3 -7 0 -7 7 0 7 3 10 7 7 3 -4 3 -10 0 -14z m-3600 -110 c-4 -3 -10 -3 -14 0
-3 4 0 7 7 7 7 0 10 -3 7 -7z m523 -20 c0 -13 -2 -15 -8 -5 -5 7 -16 10 -25 6
-10 -3 -17 -1 -17 5 0 6 11 11 25 11 17 0 25 -5 25 -17z m637 -89 c-3 -3 -12
-4 -19 -1 -8 3 -5 6 6 6 11 1 17 -2 13 -5z m-57 -39 c0 -8 -4 -15 -9 -15 -13
0 -22 16 -14 24 11 11 23 6 23 -9z m54 0 c-7 -17 -30 -20 -38 -6 -4 5 0 12 6
14 25 10 37 7 32 -8z m2166 -95 c10 0 0 -43 -11 -50 -4 -3 -12 -33 -18 -66 -9
-61 -45 -150 -67 -169 -20 -18 -73 -101 -89 -143 -12 -30 -29 -48 -60 -67 -24
-14 -51 -35 -60 -47 -8 -13 -15 -19 -15 -15 0 15 -41 -31 -61 -67 -13 -24 -19
-56 -19 -98 0 -47 -5 -69 -20 -88 -17 -22 -21 -24 -41 -12 -26 17 -34 8 -43
-50 -7 -43 -29 -83 -61 -110 -19 -16 -21 -16 -37 2 -9 11 -19 20 -23 20 -20 0
-81 83 -88 121 l-4 24 -2 -25 c-2 -30 -22 -89 -50 -147 -12 -23 -21 -46 -21
-51 0 -6 -7 -12 -15 -16 -8 -3 -15 -1 -15 4 0 6 -12 10 -27 10 -30 1 -71 44
-53 55 17 10 11 25 -10 25 -11 0 -20 5 -20 10 0 6 5 10 10 10 16 0 12 30 -6
48 -15 14 -15 17 2 29 16 12 17 15 5 23 -12 7 -12 11 -2 24 12 14 10 16 -14
16 -18 0 -25 4 -21 13 3 6 9 20 12 30 4 10 16 17 30 17 23 0 28 9 25 38 -1 6
5 12 13 12 8 0 27 16 42 35 14 19 33 35 40 35 8 0 19 10 25 23 14 30 61 65 67
49 2 -7 11 -12 19 -12 12 0 13 3 4 14 -15 18 9 39 41 34 18 -2 23 2 24 19 1
12 7 28 15 36 8 8 25 29 39 47 27 35 137 120 155 120 7 0 54 42 107 93 146
141 172 162 230 181 10 3 15 11 12 19 -3 8 5 18 18 24 19 9 24 7 26 -8 2 -11
7 -19 12 -19z m-1703 -66 c-3 -3 -12 -4 -19 -1 -8 3 -5 6 6 6 11 1 17 -2 13
-5z m-80 -20 c-3 -3 -12 -4 -19 -1 -8 3 -5 6 6 6 11 1 17 -2 13 -5z m-68 -47
c16 -8 25 -22 27 -44 3 -28 0 -34 -21 -39 -24 -6 -36 -4 -80 11 -11 3 -8 -1 8
-10 36 -21 34 -25 -10 -20 -21 1 -45 4 -53 4 -12 1 -11 5 4 16 11 8 16 15 10
15 -5 0 0 7 10 15 19 14 18 15 -5 25 -24 10 -24 10 3 5 14 -3 34 -8 45 -11 14
-5 15 -4 4 4 -12 9 -12 13 -2 26 16 19 28 20 60 3z m71 -14 c0 -13 -3 -13 -15
-3 -8 7 -12 16 -9 21 8 13 24 1 24 -18z m-353 0 c-4 -3 -10 -3 -14 0 -3 4 0 7
7 7 7 0 10 -3 7 -7z m880 -70 c-4 -3 -7 0 -7 7 0 7 3 10 7 7 3 -4 3 -10 0 -14z
m96 -3 c5 -18 4 -18 -19 -3 -29 19 -30 23 -5 23 10 0 21 -9 24 -20z m-96 -17
c-4 -3 -10 -3 -14 0 -3 4 0 7 7 7 7 0 10 -3 7 -7z m-537 -12 c0 -24 -13 -38
-31 -34 -13 4 -19 0 -19 -11 0 -20 -9 -20 -31 0 -11 10 -25 14 -36 9 -29 -11
31 -38 67 -30 27 6 50 -8 31 -19 -5 -3 -7 -15 -4 -26 4 -14 0 -20 -11 -20 -9
0 -19 0 -23 0 -5 0 -8 6 -8 13 0 17 -26 36 -51 37 -30 0 -53 28 -33 41 12 7
11 9 -2 9 -9 0 -22 7 -29 15 -11 13 -6 15 33 15 25 0 49 -4 52 -10 8 -13 45
-13 45 -1 0 8 16 16 43 20 4 0 7 -3 7 -8z m-303 -48 c-4 -3 -10 -3 -14 0 -3 4
0 7 7 7 7 0 10 -3 7 -7z m153 -51 c0 -15 -2 -15 -10 -2 -13 20 -13 33 0 25 6
-3 10 -14 10 -23z m57 -19 c-4 -3 -10 -3 -14 0 -3 4 0 7 7 7 7 0 10 -3 7 -7z
m-1110 -65 c-3 -8 -6 -5 -6 6 -1 11 2 17 5 13 3 -3 4 -12 1 -19z m1893 -327
c0 -6 -4 -13 -10 -16 -5 -3 -10 1 -10 9 0 9 5 16 10 16 6 0 10 -4 10 -9z
m-770 -111 c0 -4 -11 -5 -25 -2 -14 2 -23 8 -20 12 6 10 45 1 45 -10z m917 3
c-4 -3 -7 0 -7 7 0 7 3 10 7 7 3 -4 3 -10 0 -14z m-785 -35 c14 -14 18 -23 10
-26 -7 -2 -12 -10 -12 -18 0 -8 -9 -14 -20 -14 -11 0 -20 7 -20 15 0 8 5 15
10 15 6 0 10 8 10 18 0 13 -2 14 -9 3 -11 -17 -32 -5 -24 14 8 21 30 18 55 -7z
m-182 -18 c0 -5 -2 -10 -4 -10 -3 0 -8 5 -11 10 -3 6 -1 10 4 10 6 0 11 -4 11
-10z m967 -7 c-4 -3 -7 0 -7 7 0 7 3 10 7 7 3 -4 3 -10 0 -14z m-567 -28 c0
-8 -4 -15 -10 -15 -5 0 -10 7 -10 15 0 8 5 15 10 15 6 0 10 -7 10 -15z m-330
-20 c7 -9 8 -15 2 -15 -5 0 -12 7 -16 15 -3 8 -4 15 -2 15 2 0 9 -7 16 -15z
m45 -5 c-3 -5 -11 -10 -16 -10 -6 0 -7 5 -4 10 3 6 11 10 16 10 6 0 7 -4 4
-10z m-239 -125 c17 -16 14 -18 -10 -9 -9 3 -16 10 -16 15 0 13 9 11 26 -6z
m-2219 -52 c-4 -3 -7 0 -7 7 0 7 3 10 7 7 3 -4 3 -10 0 -14z m2359 -7 c19 -20
18 -25 -6 -19 -12 3 -20 0 -20 -6 0 -7 6 -9 13 -5 9 5 9 4 1 -6 -7 -7 -21 -9
-34 -5 -15 5 -19 10 -12 17 6 6 8 17 5 24 -7 19 34 18 53 0z m-2386 -26 c-24
-15 -36 -11 -14 4 10 8 21 12 24 10 2 -3 -2 -9 -10 -14z m2307 14 c-3 -3 -12
-4 -19 -1 -8 3 -5 6 6 6 11 1 17 -2 13 -5z m-57 -24 c0 -5 7 -10 16 -10 12 0
14 -3 6 -13 -9 -10 -4 -16 23 -26 19 -7 35 -17 35 -22 0 -11 3 -12 -45 6 -22
7 -39 18 -38 24 2 6 -12 15 -30 20 -25 7 -27 9 -9 10 12 1 22 6 22 11 0 6 5
10 10 10 6 0 10 -4 10 -10z m-83 -7 c-4 -3 -10 -3 -14 0 -3 4 0 7 7 7 7 0 10
-3 7 -7z m-42 -21 c-3 -3 -11 0 -18 7 -9 10 -8 11 6 5 10 -3 15 -9 12 -12z
m246 -26 c-4 -18 -6 -19 -9 -3 -2 12 -13 17 -38 17 -19 0 -34 4 -34 9 0 15 21
18 55 7 26 -8 31 -14 26 -30z m-2317 18 c9 -22 8 -24 -9 -18 -8 4 -15 12 -15
20 0 19 16 18 24 -2z m2396 -20 c0 -11 -5 -14 -16 -10 -9 3 -20 6 -25 6 -5 0
-9 5 -9 10 0 6 11 10 25 10 16 0 25 -6 25 -16z m-1297 -14 c9 -11 17 -22 17
-24 0 -7 -54 -18 -107 -22 -42 -3 -53 -1 -53 11 0 8 5 15 11 15 5 0 8 4 5 9
-3 5 1 12 10 15 26 10 52 7 58 -6 3 -9 8 -8 16 5 14 22 22 22 43 -3z m1151
-15 c22 -17 15 -31 -9 -21 -9 3 -13 10 -10 16 3 5 0 7 -8 4 -8 -3 -18 -1 -22
5 -9 16 27 13 49 -4z m163 -2 c-4 -3 -10 -3 -14 0 -3 4 0 7 7 7 7 0 10 -3 7
-7z m-100 -40 c-4 -3 -10 -3 -14 0 -3 4 0 7 7 7 7 0 10 -3 7 -7z m-480 -20
c-4 -3 -7 0 -7 7 0 7 3 10 7 7 3 -4 3 -10 0 -14z m188 -11 c-3 -3 -11 0 -18 7
-9 10 -8 11 6 5 10 -3 15 -9 12 -12z m-298 -39 c-4 -3 -7 0 -7 7 0 7 3 10 7 7
3 -4 3 -10 0 -14z m440 -50 c-4 -3 -7 0 -7 7 0 7 3 10 7 7 3 -4 3 -10 0 -14z
m-1630 -10 c-4 -3 -7 0 -7 7 0 7 3 10 7 7 3 -4 3 -10 0 -14z m1543 -4 c0 -11
-4 -17 -10 -14 -5 3 -10 13 -10 21 0 8 5 14 10 14 6 0 10 -9 10 -21z m-210 -9
c0 -5 -2 -10 -4 -10 -3 0 -8 5 -11 10 -3 6 -1 10 4 10 6 0 11 -4 11 -10z
m1897 -7 c-4 -3 -7 0 -7 7 0 7 3 10 7 7 3 -4 3 -10 0 -14z m-2942 -33 c3 -5
-1 -10 -9 -10 -9 0 -16 5 -16 10 0 6 4 10 9 10 6 0 13 -4 16 -10z m-86 -17
c-4 -26 16 -53 37 -53 13 0 24 -4 24 -10 0 -5 -6 -10 -12 -10 -10 0 -10 -2 0
-9 9 -5 1 -10 -26 -15 -46 -7 -104 2 -96 15 3 5 -2 9 -10 9 -42 0 8 59 51 61
16 0 16 1 -2 9 -18 8 -17 9 8 9 15 1 27 -2 26 -6z m-151 -21 c2 -7 -3 -12 -12
-12 -9 0 -16 7 -16 16 0 17 22 14 28 -4z m3132 -27 c0 -8 -4 -15 -10 -15 -5 0
-10 7 -10 15 0 8 5 15 10 15 6 0 10 -7 10 -15z m-1763 -32 c-4 -3 -10 -3 -14
0 -3 4 0 7 7 7 7 0 10 -3 7 -7z m1729 -60 c-11 -11 -19 6 -11 24 8 17 8 17 12
0 3 -10 2 -21 -1 -24z m-2949 20 c-4 -3 -10 -3 -14 0 -3 4 0 7 7 7 7 0 10 -3
7 -7z m-1177 -63 c0 -5 -5 -10 -11 -10 -5 0 -7 5 -4 10 3 6 8 10 11 10 2 0 4
-4 4 -10z m1661 -73 c-10 -9 -11 -8 -5 6 3 10 9 15 12 12 3 -3 0 -11 -7 -18z
m-1732 -10 c-2 -1 -19 -12 -36 -25 -18 -12 -30 -17 -28 -10 6 14 57 47 64 41
2 -1 2 -4 0 -6z m1441 0 c0 -4 -86 -60 -118 -76 -42 -22 -35 -3 10 26 59 38
108 61 108 50z m251 -10 c-6 -8 -8 -17 -4 -21 4 -4 -1 -4 -10 0 -12 4 -17 2
-15 -7 2 -8 -4 -13 -14 -13 -10 1 -16 -2 -13 -6 7 -11 -14 -24 -23 -15 -4 3
11 22 33 40 40 34 67 47 46 22z m-1671 -27 c0 -5 -5 -10 -11 -10 -5 0 -7 5 -4
10 3 6 8 10 11 10 2 0 4 -4 4 -10z m4086 -17 c-2 -10 -9 -18 -17 -18 -7 0 -15
8 -17 18 -2 11 3 17 16 17 14 0 19 -6 18 -17z m-2939 -10 c-4 -3 -10 -3 -14 0
-3 4 0 7 7 7 7 0 10 -3 7 -7z m-28 -24 c-22 -14 -33 -10 -19 6 7 8 17 12 22 9
6 -4 5 -10 -3 -15z m-1232 -6 c-4 -3 -7 0 -7 7 0 7 3 10 7 7 3 -4 3 -10 0 -14z
m1187 -26 c-11 -6 -21 -13 -24 -17 -13 -16 -69 -50 -64 -38 9 22 85 78 96 72
6 -4 3 -11 -8 -17z m-1157 -4 c-4 -3 -7 0 -7 7 0 7 3 10 7 7 3 -4 3 -10 0 -14z
m1033 -7 c0 -9 -75 -76 -85 -75 -5 0 10 18 35 39 45 40 50 44 50 36z m-130
-20 c0 -3 -5 -8 -12 -12 -7 -4 -8 -3 -4 4 7 12 16 16 16 8z m-66 -62 c-21 -18
-42 -33 -46 -34 -5 0 -8 -7 -8 -15 0 -8 -4 -16 -10 -16 -20 -3 -25 -4 -38 -13
-12 -7 -12 -4 -1 15 14 28 40 49 51 43 4 -3 5 1 2 9 -7 19 25 42 62 44 l28 1
-40 -34z m213 -1 c-4 -3 -7 0 -7 7 0 7 3 10 7 7 3 -4 3 -10 0 -14z m-112 -13
c-3 -5 -12 -10 -18 -10 -7 0 -6 4 3 10 19 12 23 12 15 0z m1512 -167 c-4 -3
-10 -3 -14 0 -3 4 0 7 7 7 7 0 10 -3 7 -7z m-40 -30 c-4 -3 -10 -3 -14 0 -3 4
0 7 7 7 7 0 10 -3 7 -7z m-66 -46 c-16 -16 -25 -1 -10 16 8 8 16 11 18 5 2 -5
-2 -15 -8 -21z m-145 -78 c-14 -11 -32 -19 -39 -16 -6 2 1 11 18 20 42 23 53
21 21 -4z m-166 -63 c0 -11 -19 -15 -25 -6 -3 5 1 10 9 10 9 0 16 -2 16 -4z
m-102 -31 c-2 -1 -21 -5 -43 -9 l-40 -6 30 13 c17 8 36 12 43 9 7 -2 12 -6 10
-7z m29 8 c-4 -3 -10 -3 -14 0 -3 4 0 7 7 7 7 0 10 -3 7 -7z m-220 -40 c-4 -3
-10 -3 -14 0 -3 4 0 7 7 7 7 0 10 -3 7 -7z m-332 -232 c3 -5 1 -12 -5 -16 -5
-3 -10 1 -10 9 0 18 6 21 15 7z m-100 -41 c3 -5 1 -10 -4 -10 -6 0 -11 5 -11
10 0 6 2 10 4 10 3 0 8 -4 11 -10z m235 -10 c13 -8 13 -10 -2 -10 -9 0 -20 5
-23 10 -8 13 5 13 25 0z m67 3 c-4 -3 -10 -3 -14 0 -3 4 0 7 7 7 7 0 10 -3 7
-7z m678 -23 c3 -5 2 -10 -4 -10 -5 0 -13 5 -16 10 -3 6 -2 10 4 10 5 0 13 -4
16 -10z m-910 -24 c33 -10 74 -21 90 -27 17 -5 61 -13 98 -16 40 -4 63 -9 55
-14 -17 -11 -8 -18 33 -24 27 -5 30 -4 12 4 -15 7 -20 16 -16 30 4 17 1 21
-16 21 -12 0 -20 4 -17 9 3 5 -9 16 -27 25 -25 12 -28 16 -11 16 24 0 85 -28
97 -44 5 -8 10 -6 17 4 6 10 10 11 10 3 0 -7 9 -13 19 -13 11 0 22 6 24 13 4
7 6 6 6 -5 1 -9 13 -21 29 -26 17 -7 21 -11 10 -11 -20 -1 -25 -21 -5 -21 6 0
23 -3 36 -7 20 -5 23 -3 18 10 -10 25 45 26 70 1 8 -8 23 -14 33 -14 10 0 20
-5 22 -11 3 -8 16 -8 46 1 35 9 48 8 74 -4 17 -9 34 -13 39 -10 5 3 12 -8 15
-25 4 -16 14 -32 23 -34 10 -3 8 -5 -7 -6 -12 0 -25 6 -29 15 -3 8 -12 13 -19
10 -8 -3 -14 0 -14 7 0 13 -39 41 -47 34 -2 -3 8 -17 23 -32 25 -25 26 -29 11
-40 -9 -7 -17 -17 -17 -23 0 -11 -18 -11 -37 1 -16 10 -22 -14 -9 -36 15 -24
-13 -44 -30 -22 -13 17 -29 21 -18 4 4 -7 -4 -10 -22 -7 -25 3 -29 -1 -32 -24
-2 -16 -9 -28 -15 -28 -7 0 -6 -4 3 -10 11 -7 8 -11 -15 -20 -32 -12 -45 -26
-45 -50 0 -13 1 -13 10 0 7 10 8 -1 3 -35 -3 -27 -11 -53 -17 -57 -8 -5 -7 -8
2 -8 6 0 12 -7 12 -15 0 -19 -19 -19 -44 0 -11 8 -23 15 -27 15 -10 0 -21 -52
-21 -105 0 -52 -14 -51 -24 2 -4 23 -13 37 -25 40 -11 3 -19 9 -19 14 0 5 -13
9 -30 9 -35 0 -40 -17 -7 -23 15 -3 12 -5 -13 -6 -19 -2 -29 -5 -22 -8 24 -10
11 -22 -18 -16 -24 4 -30 2 -30 -11 0 -13 5 -16 20 -11 14 4 20 2 20 -8 0 -8
6 -17 14 -20 16 -6 10 -47 -8 -59 -8 -5 -7 -11 2 -20 10 -10 5 -16 -24 -30
-39 -19 -77 -15 -49 6 15 10 14 14 -3 34 -11 12 -26 22 -33 22 -8 0 -25 9 -39
20 l-25 20 33 0 c31 0 31 1 15 19 -10 11 -24 27 -31 35 -7 9 -25 16 -39 16
-25 0 -25 -1 -10 -18 10 -10 14 -22 10 -25 -11 -12 -43 -8 -43 5 0 6 -6 3 -14
-7 -14 -19 -15 -19 -33 -2 -21 19 -93 24 -93 6 0 -6 14 -16 30 -22 17 -6 33
-20 36 -29 3 -10 12 -17 21 -16 20 4 44 -33 26 -39 -7 -3 -13 -16 -13 -29 0
-17 -6 -24 -20 -24 -10 0 -43 -9 -71 -20 -29 -12 -58 -19 -65 -16 -7 3 -15 -2
-18 -10 -3 -8 -1 -14 4 -14 6 0 10 -5 10 -11 0 -8 -15 -10 -48 -5 -53 7 -68 0
-51 -21 9 -10 8 -13 -1 -13 -9 0 -11 -12 -7 -45 6 -37 3 -46 -13 -55 -10 -5
-26 -10 -36 -10 -9 0 -22 -7 -29 -16 -10 -14 -15 -15 -36 -4 -18 10 -20 15 -9
18 20 7 31 25 20 32 -6 3 -11 22 -14 41 -2 25 2 39 17 51 11 10 23 18 27 18
15 0 18 41 4 54 -19 19 -18 23 7 29 21 6 21 6 -6 31 -25 24 -26 26 -11 48 9
12 16 19 16 14 0 -5 7 -3 15 4 18 15 11 30 -16 30 -16 0 -19 7 -19 40 0 28 4
40 14 40 9 0 15 15 17 44 2 24 1 42 -3 39 -5 -2 -8 14 -8 36 0 34 3 41 20 41
11 0 20 -4 20 -9 0 -12 35 -20 49 -11 9 5 9 13 0 34 -10 22 -18 26 -43 24 -26
-2 -32 1 -34 20 -4 23 5 26 58 23 20 -2 22 0 10 8 -8 5 -12 11 -10 13 3 2 22
12 43 22 20 11 37 23 37 28 0 4 9 8 19 8 28 0 43 50 25 85 -8 15 -14 35 -14
45 0 10 -6 21 -12 24 -7 3 -1 4 14 1 21 -4 26 -2 22 9 -3 8 -1 17 5 21 15 9
14 42 -1 48 -7 3 3 6 22 7 19 1 29 4 22 7 -6 2 -9 9 -6 15 7 11 31 8 119 -16z
m160 -16 c3 -5 4 -10 1 -10 -3 0 -8 5 -11 10 -3 6 -4 10 -1 10 3 0 8 -4 11
-10z m490 -38 c-3 -3 -11 0 -18 7 -9 10 -8 11 6 5 10 -3 15 -9 12 -12z m-81 1
c-5 -5 -12 -12 -16 -18 -4 -6 -8 -2 -8 8 0 9 7 17 17 17 9 0 12 -3 7 -7z m281
-3 c3 -5 1 -10 -4 -10 -6 0 -11 5 -11 10 0 6 2 10 4 10 3 0 8 -4 11 -10z
m-225 -20 c18 -12 2 -12 -25 0 -13 6 -15 9 -5 9 8 0 22 -4 30 -9z m67 4 c-3
-3 -12 -4 -19 -1 -8 3 -5 6 6 6 11 1 17 -2 13 -5z m180 -11 c-4 -3 -7 0 -7 7
0 7 3 10 7 7 3 -4 3 -10 0 -14z m-40 -10 c-4 -3 -10 -3 -14 0 -3 4 0 7 7 7 7
0 10 -3 7 -7z m40 -30 c-4 -3 -7 0 -7 7 0 7 3 10 7 7 3 -4 3 -10 0 -14z m-39
-32 c3 -8 -1 -12 -9 -9 -7 2 -15 10 -17 17 -3 8 1 12 9 9 7 -2 15 -10 17 -17z
m-21 -38 c-4 -3 -10 -3 -14 0 -3 4 0 7 7 7 7 0 10 -3 7 -7z m-410 -350 c-4 -3
-7 0 -7 7 0 7 3 10 7 7 3 -4 3 -10 0 -14z m-80 -40 c-4 -3 -7 0 -7 7 0 7 3 10
7 7 3 -4 3 -10 0 -14z m93 -28 c0 -8 -4 -17 -10 -20 -6 -4 -10 5 -10 20 0 15
4 24 10 20 6 -3 10 -12 10 -20z m-363 -42 c-4 -3 -10 -3 -14 0 -3 4 0 7 7 7 7
0 10 -3 7 -7z m-50 -130 c-4 -3 -7 0 -7 7 0 7 3 10 7 7 3 -4 3 -10 0 -14z
m240 0 c-4 -3 -7 0 -7 7 0 7 3 10 7 7 3 -4 3 -10 0 -14z m-440 -159 c-3 -3
-12 -4 -19 -1 -8 3 -5 6 6 6 11 1 17 -2 13 -5z m-40 -21 c-4 -3 -7 0 -7 7 0 7
3 10 7 7 3 -4 3 -10 0 -14z"/>
<path d="M4670 3388 c0 -18 18 -34 28 -24 3 4 -2 14 -11 23 -16 16 -17 16 -17
1z"/>
<path d="M4670 3320 c0 -5 5 -10 10 -10 6 0 10 5 10 10 0 6 -4 10 -10 10 -5 0
-10 -4 -10 -10z"/>
<path d="M4438 3313 c7 -3 16 -2 19 1 4 3 -2 6 -13 5 -11 0 -14 -3 -6 -6z"/>
<path d="M1663 2473 c4 -3 10 -3 14 0 3 4 0 7 -7 7 -7 0 -10 -3 -7 -7z"/>
<path d="M2065 1230 c3 -5 13 -10 21 -10 8 0 12 5 9 10 -3 6 -13 10 -21 10 -8
0 -12 -4 -9 -10z"/>
<path d="M1940 1210 c0 -5 9 -10 19 -10 11 0 23 5 26 10 4 6 -5 10 -19 10 -14
0 -26 -4 -26 -10z"/>
<path d="M2253 1213 c4 -3 10 -3 14 0 3 4 0 7 -7 7 -7 0 -10 -3 -7 -7z"/>
<path d="M2410 1120 c8 -5 22 -9 30 -9 10 0 8 3 -5 9 -27 12 -43 12 -25 0z"/>
<path d="M1520 865 c0 -9 5 -15 11 -13 6 2 11 8 11 13 0 5 -5 11 -11 13 -6 2
-11 -4 -11 -13z"/>
<path d="M2163 803 c4 -3 10 -3 14 0 3 4 0 7 -7 7 -7 0 -10 -3 -7 -7z"/>
<path d="M1830 745 c-17 -21 -5 -31 15 -12 8 9 15 18 15 21 0 11 -18 6 -30 -9z"/>
<path d="M1750 700 c0 -7 3 -10 7 -7 3 4 3 10 0 14 -4 3 -7 0 -7 -7z"/>
<path d="M1696 575 c-3 -9 0 -15 9 -15 16 0 20 16 6 24 -5 3 -11 -1 -15 -9z"/>
<path d="M1523 553 c4 -3 10 -3 14 0 3 4 0 7 -7 7 -7 0 -10 -3 -7 -7z"/>
<path d="M3430 5420 c-28 -24 -32 -32 -21 -39 16 -10 41 -4 41 10 0 5 6 9 14
9 21 0 27 15 13 33 -11 15 -16 13 -47 -13z"/>
<path d="M3709 5293 c-13 -16 -12 -17 4 -4 9 7 17 15 17 17 0 8 -8 3 -21 -13z"/>
<path d="M3265 5090 c3 -5 8 -10 11 -10 2 0 4 5 4 10 0 6 -5 10 -11 10 -5 0
-7 -4 -4 -10z"/>
<path d="M3920 4990 c0 -7 3 -10 7 -7 3 4 3 10 0 14 -4 3 -7 0 -7 -7z"/>
<path d="M2200 4170 c0 -5 7 -10 16 -10 8 0 12 5 9 10 -3 6 -10 10 -16 10 -5
0 -9 -4 -9 -10z"/>
<path d="M1666 4085 c-9 -26 -7 -32 5 -12 6 10 9 21 6 23 -2 3 -7 -2 -11 -11z"/>
<path d="M1640 4029 c0 -5 5 -7 10 -4 6 3 10 8 10 11 0 2 -4 4 -10 4 -5 0 -10
-5 -10 -11z"/>
<path d="M1616 3979 c-11 -21 -13 -36 -6 -48 8 -13 9 -12 10 7 0 13 5 32 11
44 6 11 8 22 6 24 -3 3 -12 -9 -21 -27z"/>
<path d="M2545 3960 c3 -5 8 -10 11 -10 2 0 4 5 4 10 0 6 -5 10 -11 10 -5 0
-7 -4 -4 -10z"/>
<path d="M1584 3924 c-4 -10 -9 -22 -11 -26 -2 -5 0 -8 6 -8 11 0 26 39 17 47
-3 3 -9 -3 -12 -13z"/>
<path d="M1550 3870 c0 -7 3 -10 7 -7 3 4 3 10 0 14 -4 3 -7 0 -7 -7z"/>
<path d="M2196 3840 c-16 -5 -33 -7 -38 -4 -4 3 -5 -2 -1 -11 3 -10 0 -21 -8
-26 -11 -6 -11 -11 -1 -21 9 -9 12 -9 12 4 0 18 32 29 50 18 7 -4 10 -15 7
-24 -5 -12 -1 -16 14 -16 16 0 19 4 14 18 -4 9 -7 29 -6 45 1 29 0 30 -43 17z"/>
<path d="M1506 3785 c-9 -26 -7 -32 5 -12 6 10 9 21 6 23 -2 3 -7 -2 -11 -11z"/>
<path d="M3990 3730 c0 -7 3 -10 7 -7 3 4 3 10 0 14 -4 3 -7 0 -7 -7z"/>
<path d="M2070 3700 c0 -7 3 -10 7 -7 3 4 3 10 0 14 -4 3 -7 0 -7 -7z"/>
<path d="M1425 3629 c-4 -11 -4 -23 -1 -26 3 -4 6 2 6 13 0 16 2 17 10 4 8
-13 10 -13 10 2 0 26 -18 31 -25 7z"/>
<path d="M3928 3568 c9 -9 15 -9 24 0 9 9 7 12 -12 12 -19 0 -21 -3 -12 -12z"/>
<path d="M1420 3560 c0 -7 3 -10 7 -7 3 4 3 10 0 14 -4 3 -7 0 -7 -7z"/>
<path d="M3690 3546 c0 -9 7 -16 16 -16 9 0 14 5 12 12 -6 18 -28 21 -28 4z"/>
<path d="M3523 3543 c4 -3 10 -3 14 0 3 4 0 7 -7 7 -7 0 -10 -3 -7 -7z"/>
<path d="M3551 3546 c2 -2 14 -9 27 -15 18 -10 22 -9 22 4 0 10 -9 15 -27 15
-14 0 -24 -2 -22 -4z"/>
<path d="M3263 3513 c4 -3 10 -3 14 0 3 4 0 7 -7 7 -7 0 -10 -3 -7 -7z"/>
<path d="M2863 3469 c-12 -4 -24 -20 -28 -38 -4 -17 -11 -29 -16 -25 -5 3 -9
-1 -9 -9 0 -8 -7 -20 -15 -27 -9 -7 -14 -19 -11 -27 4 -9 -4 -13 -27 -14 -27
0 -29 -2 -12 -9 20 -9 20 -9 0 -15 -23 -7 -31 -47 -14 -73 9 -14 10 -13 5 6
-4 19 -2 21 10 11 9 -7 12 -20 8 -32 -5 -16 -3 -19 10 -14 9 4 16 3 16 -1 0
-7 30 -26 63 -38 9 -3 17 -10 17 -15 0 -5 7 -9 15 -9 8 0 15 5 15 11 0 8 4 9
13 0 8 -6 18 -7 22 -3 5 4 6 0 3 -8 -4 -12 1 -15 21 -14 23 1 26 5 23 35 -1
18 -6 36 -10 39 -4 3 -16 18 -26 34 -15 24 -16 28 -3 23 12 -5 15 1 14 26 -1
18 -6 35 -11 39 -6 4 -5 13 3 21 10 13 8 16 -8 22 -23 7 -27 21 -8 28 9 3 7 9
-5 24 -10 11 -18 27 -18 36 0 21 -11 26 -37 16z m64 -116 c-4 -3 -10 -3 -14 0
-3 4 0 7 7 7 7 0 10 -3 7 -7z"/>
<path d="M2821 3444 c0 -11 3 -14 6 -6 3 7 2 16 -1 19 -3 4 -6 -2 -5 -13z"/>
<path d="M1230 3355 c-7 -9 -10 -18 -7 -21 3 -3 10 4 17 15 13 25 8 27 -10 6z"/>
<path d="M3825 3330 c3 -5 8 -10 11 -10 2 0 4 5 4 10 0 6 -5 10 -11 10 -5 0
-7 -4 -4 -10z"/>
<path d="M1181 3287 c-13 -21 -12 -21 5 -5 10 10 16 20 13 22 -3 3 -11 -5 -18
-17z"/>
<path d="M3250 3290 c0 -7 3 -10 7 -7 3 4 3 10 0 14 -4 3 -7 0 -7 -7z"/>
<path d="M1140 3240 c0 -5 5 -10 10 -10 6 0 10 5 10 10 0 6 -4 10 -10 10 -5 0
-10 -4 -10 -10z"/>
<path d="M1106 3195 c-3 -8 -1 -15 4 -15 6 0 10 7 10 15 0 8 -2 15 -4 15 -2 0
-6 -7 -10 -15z"/>
<path d="M2850 3120 c0 -6 7 -10 15 -10 8 0 15 2 15 4 0 2 -7 6 -15 10 -8 3
-15 1 -15 -4z"/>
<path d="M2895 3120 c3 -5 8 -10 11 -10 3 0 2 5 -1 10 -3 6 -8 10 -11 10 -3 0
-2 -4 1 -10z"/>
<path d="M1025 3021 c-3 -5 -1 -12 5 -16 5 -3 10 1 10 9 0 18 -6 21 -15 7z"/>
<path d="M2804 3004 c-1 -13 2 -21 7 -18 11 6 12 31 2 37 -5 3 -9 -6 -9 -19z"/>
<path d="M1030 2970 c0 -7 3 -10 7 -7 3 4 3 10 0 14 -4 3 -7 0 -7 -7z"/>
<path d="M2415 2930 c-7 -12 2 -30 16 -30 5 0 9 9 9 20 0 21 -15 27 -25 10z"/>
<path d="M2794 2908 c-4 -7 -3 -8 4 -4 12 7 16 16 8 16 -3 0 -8 -5 -12 -12z"/>
<path d="M1600 2847 c0 -19 4 -25 14 -21 19 7 36 -26 36 -70 0 -25 4 -36 15
-36 20 0 19 -10 -2 -26 -15 -10 -16 -15 -5 -26 16 -16 46 1 50 30 2 11 10 23
18 26 9 3 12 1 9 -4 -4 -7 9 -8 37 -4 55 9 61 14 15 14 -33 0 -67 20 -67 40 0
4 -13 13 -29 20 -19 7 -28 17 -24 26 6 17 -15 46 -29 38 -5 -3 -15 0 -23 6
-13 10 -15 8 -15 -13z"/>
<path d="M2803 2803 c4 -3 10 -3 14 0 3 4 0 7 -7 7 -7 0 -10 -3 -7 -7z"/>
<path d="M2838 2793 c7 -3 16 -2 19 1 4 3 -2 6 -13 5 -11 0 -14 -3 -6 -6z"/>
<path d="M1457 2745 c-20 -14 -22 -25 -6 -25 7 0 17 -8 24 -17 11 -15 13 -15
24 6 21 39 -6 63 -42 36z"/>
<path d="M1520 2750 c0 -7 3 -10 7 -7 3 4 3 10 0 14 -4 3 -7 0 -7 -7z"/>
<path d="M2650 2740 c0 -7 3 -10 7 -7 3 4 3 10 0 14 -4 3 -7 0 -7 -7z"/>
<path d="M2840 2680 c0 -5 7 -10 15 -10 8 0 15 5 15 10 0 6 -7 10 -15 10 -8 0
-15 -4 -15 -10z"/>
<path d="M1600 2640 c0 -5 7 -7 15 -4 8 4 15 8 15 10 0 2 -7 4 -15 4 -8 0 -15
-4 -15 -10z"/>
<path d="M1675 2630 c4 -6 11 -8 16 -5 14 9 11 15 -7 15 -8 0 -12 -5 -9 -10z"/>
<path d="M664 2606 c-9 -15 -14 -29 -12 -32 3 -2 13 7 22 22 10 14 15 28 13
31 -3 2 -13 -7 -23 -21z"/>
<path d="M2310 2580 c0 -7 3 -10 7 -7 3 4 3 10 0 14 -4 3 -7 0 -7 -7z"/>
<path d="M580 2499 c0 -5 5 -7 10 -4 6 3 10 8 10 11 0 2 -4 4 -10 4 -5 0 -10
-5 -10 -11z"/>
<path d="M3400 230 c0 -5 5 -10 11 -10 5 0 7 5 4 10 -3 6 -8 10 -11 10 -2 0
-4 -4 -4 -10z"/>
<path d="M4633 3 c4 -3 10 -3 14 0 3 4 0 7 -7 7 -7 0 -10 -3 -7 -7z"/>
</g>
</svg>
